<mxfile host="65bd71144e">
    <diagram id="QcNqDyV1fCgkeS2Ic9OX" name="Page-1">
        <mxGraphModel dx="1056" dy="779" grid="1" gridSize="10" guides="1" tooltips="1" connect="1" arrows="1" fold="1" page="1" pageScale="1" pageWidth="850" pageHeight="1100" math="0" shadow="0">
            <root>
                <mxCell id="0"/>
                <mxCell id="1" parent="0"/>
                <mxCell id="2" value="USER&lt;br&gt;&lt;br&gt;id&lt;br&gt;firstname&lt;br&gt;lastname&lt;br&gt;usename&lt;br&gt;password&lt;br&gt;user_role" style="whiteSpace=wrap;html=1;aspect=fixed;" vertex="1" parent="1">
                    <mxGeometry x="130" y="160" width="170" height="170" as="geometry"/>
                </mxCell>
                <mxCell id="5" value="" style="edgeStyle=none;html=1;" edge="1" parent="1" source="3" target="4">
                    <mxGeometry relative="1" as="geometry"/>
                </mxCell>
                <mxCell id="3" value="SINGKING GROUP&lt;br&gt;&lt;br&gt;id&lt;br&gt;name&lt;br&gt;members&lt;br&gt;&lt;br&gt;" style="whiteSpace=wrap;html=1;aspect=fixed;" vertex="1" parent="1">
                    <mxGeometry x="420" y="160" width="160" height="160" as="geometry"/>
                </mxCell>
                <mxCell id="4" value="LOAN&lt;br&gt;&lt;br&gt;id&lt;br&gt;lender&lt;br&gt;amount&lt;br&gt;lend_date&lt;br&gt;due_date" style="whiteSpace=wrap;html=1;" vertex="1" parent="1">
                    <mxGeometry x="440" y="430" width="120" height="150" as="geometry"/>
                </mxCell>
            </root>
        </mxGraphModel>
    </diagram>
</mxfile>